<?xml version="1.0" encoding="utf-8" ?>
<svg xmlns="http://www.w3.org/2000/svg" xmlns:xlink="http://www.w3.org/1999/xlink" width="20" height="20" viewBox="0 0 20 20">
	<defs>
		<clipPath id="clipPath2879096770">
			<path transform="matrix(1 0 0 1 0 0)" d="M0 0L20 0L20 20L0 20L0 0Z" fill-rule="nonzero"/>
		</clipPath>
	</defs>
	<g clip-path="url(#clipPath2879096770)">
		<defs>
			<clipPath id="clipPath9329484317">
				<path transform="matrix(1 0 0 1 -0 -0)" d="M0 0L20 0L20 20L0 20L0 0Z" fill-rule="nonzero"/>
			</clipPath>
		</defs>
		<g clip-path="url(#clipPath9329484317)">
			<path transform="matrix(1 0 0 1 3.75 5.23438)" d="M9.02619 1.02941Q9.21005 0.938842 9.33213 0.786767Q9.54092 0.52669 9.48429 0.21031Q9.4263 -0.113629 9.11803 -0.300269Q8.83082 -0.474164 8.16566 -0.547948Q7.47103 -0.625 6.25 -0.625Q3.40228 -0.625 1.38864 1.38864Q-0.625 3.40228 -0.625 6.25Q-0.625 9.09772 1.38864 11.1114Q3.40228 13.125 6.25 13.125Q9.09772 13.125 11.1114 11.1114Q13.125 9.09772 13.125 6.25C13.125 5.90483 12.8452 5.625 12.5 5.625C12.1548 5.625 11.875 5.90483 11.875 6.25Q11.875 8.57995 10.2275 10.2275Q8.57995 11.875 6.25 11.875Q3.92005 11.875 2.27252 10.2275Q0.625 8.57995 0.625 6.25Q0.625 3.92005 2.27252 2.27252Q3.92005 0.625 6.25 0.625Q7.40192 0.625 8.02785 0.694432Q8.10651 0.703158 8.17456 0.71271C8.17916 0.723522 8.18408 0.73427 8.18934 0.744939C8.34187 1.05458 8.71655 1.18195 9.02619 1.02941Z" fill-rule="evenodd" fill="rgb(255, 255, 255)"/>
			<path transform="matrix(1 0 0 1 10 2.26562)" d="M-0.441942 0.441942C-0.686017 0.197866 -0.686017 -0.197866 -0.441942 -0.441942C-0.197866 -0.686017 0.197866 -0.686017 0.441942 -0.441942L3.56694 2.68306Q3.61047 2.72659 3.64467 2.77777Q3.67887 2.82895 3.70242 2.88582Q3.72598 2.94269 3.73799 3.00307Q3.75 3.06344 3.75 3.125Q3.75 3.18656 3.73799 3.24693Q3.72598 3.30731 3.70242 3.36418Q3.67887 3.42105 3.64467 3.47223Q3.61047 3.52341 3.56694 3.56694L0.441942 6.69194C0.197866 6.93602 -0.197866 6.93602 -0.441942 6.69194C-0.686017 6.44787 -0.686017 6.05213 -0.441942 5.80806L2.24112 3.125L-0.441942 0.441942Z" fill-rule="evenodd" fill="rgb(255, 255, 255)"/>
		</g>
	</g>
</svg>
