<?xml version="1.0" encoding="utf-8" ?>
<svg xmlns="http://www.w3.org/2000/svg" xmlns:xlink="http://www.w3.org/1999/xlink" width="20" height="20" viewBox="0 0 20 20">
	<defs>
		<clipPath id="clipPath2491258806">
			<path transform="matrix(1 0 0 1 -0 -0)" d="M0 0L20 0L20 20L0 20L0 0Z" fill-rule="nonzero"/>
		</clipPath>
	</defs>
	<g clip-path="url(#clipPath2491258806)">
		<path transform="matrix(1 0 0 1 3.90625 4.375)" d="M6.28791 -0.662913C5.9218 -1.02903 5.3282 -1.02903 4.96209 -0.662912L-0.662913 4.96209Q-0.794774 5.09395 -0.866137 5.26623Q-0.9375 5.43852 -0.9375 5.625Q-0.9375 5.81148 -0.866137 5.98377Q-0.794774 6.15605 -0.662913 6.28791L4.96209 11.9129C5.3282 12.279 5.9218 12.279 6.28791 11.9129C6.65403 11.5468 6.65403 10.9532 6.28791 10.5871L2.26332 6.5625L12.1875 6.5625C12.7053 6.5625 13.125 6.14276 13.125 5.625C13.125 5.10724 12.7053 4.6875 12.1875 4.6875L2.26332 4.6875L6.28791 0.662912C6.65403 0.296799 6.65403 -0.296799 6.28791 -0.662913Z" fill-rule="evenodd" fill="rgb(255, 255, 255)"/>
	</g>
</svg>
