<?xml version="1.0" encoding="utf-8" ?>
<svg xmlns="http://www.w3.org/2000/svg" xmlns:xlink="http://www.w3.org/1999/xlink" width="20" height="20" viewBox="0 0 20 20">
	<defs>
		<clipPath id="clipPath9298444612">
			<path transform="matrix(1 0 0 1 0 0)" d="M0 0L20 0L20 20L0 20L0 0Z" fill-rule="nonzero"/>
		</clipPath>
	</defs>
	<g clip-path="url(#clipPath9298444612)">
		<defs>
			<clipPath id="clipPath6794572925">
				<path transform="matrix(1 0 0 1 -0 -0)" d="M0 0L20 0L20 20L0 20L0 0Z" fill-rule="nonzero"/>
			</clipPath>
		</defs>
		<g clip-path="url(#clipPath6794572925)">
			<path transform="matrix(1 0 0 1 2.5 3.74264)" d="M7.8125 12.5148C7.71257 12.5147 7.61516 12.499 7.52027 12.4677C7.42537 12.4364 7.33776 12.391 7.25742 12.3316L7.23164 12.3117L3.65898 9.38197L0.9375 9.38197C0.678616 9.38197 0.457645 9.29044 0.274587 9.10738C0.091529 8.92432 -9.93411e-08 8.70335 0 8.44447L0 4.06986C0 3.81098 0.0915291 3.59 0.274587 3.40695C0.457646 3.22389 0.678617 3.13236 0.9375 3.13236L3.6582 3.13236L7.23086 0.202672L7.25664 0.18275C7.39905 0.0778909 7.55838 0.018116 7.73462 0.00342488C7.91086 -0.0112661 8.07789 0.021305 8.2357 0.101138C8.39351 0.180971 8.5187 0.29623 8.61128 0.446914C8.70386 0.597598 8.7501 0.761366 8.75 0.938219L8.75 11.5765C8.75 11.8354 8.65847 12.0564 8.47541 12.2394C8.29235 12.4225 8.07138 12.514 7.8125 12.514L7.8125 12.5148ZM11.25 9.38236C11.0175 9.38224 10.8403 9.28323 10.7183 9.08534C10.5963 8.88745 10.5875 8.68464 10.6918 8.47689C11.0625 7.73861 11.2504 6.99252 11.2504 6.25736C11.2504 5.50111 11.0684 4.77611 10.6937 4.04134C10.6191 3.8882 10.6088 3.73083 10.6628 3.56926C10.7169 3.40768 10.8198 3.28818 10.9715 3.21075C11.1233 3.13332 11.2804 3.12016 11.443 3.17124C11.6055 3.22233 11.7269 3.32304 11.807 3.47338C12.2734 4.38861 12.5 5.29916 12.5 6.25736C12.5 7.18822 12.2656 8.12376 11.8086 9.03783C11.7556 9.14344 11.6787 9.22727 11.5782 9.28931C11.4776 9.35135 11.3682 9.38237 11.25 9.38236Z" fill-rule="nonzero" fill="rgb(255, 255, 255)"/>
			<path transform="matrix(1 0 0 1 14.9995 5.01907)" d="M0.625529 9.98093C0.513837 9.98102 0.409608 9.95318 0.312843 9.89739C0.216079 9.84161 0.139753 9.76536 0.0838661 9.66866C0.0279784 9.57195 2.30471e-05 9.46775 0 9.35606C-2.46366e-05 9.24437 0.0278862 9.14016 0.0837326 9.04343C0.820842 7.75632 1.25053 6.67819 1.25053 4.98093C1.25053 3.25749 0.823185 2.18718 0.0852954 0.920379C0.00615397 0.771942 -0.0103668 0.616834 0.035733 0.455057C0.081832 0.29328 0.17763 0.170179 0.323126 0.0857526C0.468623 0.00132659 0.623036 -0.0207595 0.786365 0.0194943C0.949696 0.0597481 1.07616 0.151059 1.16576 0.293426C1.98959 1.70593 2.50053 2.98405 2.50053 4.98093C2.50053 6.94811 1.99037 8.23249 1.16772 9.66843C1.11181 9.76526 1.03542 9.84159 0.938553 9.89742C0.841681 9.95326 0.73734 9.98109 0.625529 9.98093Z" fill-rule="nonzero" fill="rgb(255, 255, 255)"/>
		</g>
	</g>
</svg>
