<?xml version="1.0" encoding="utf-8" ?>
<svg xmlns="http://www.w3.org/2000/svg" xmlns:xlink="http://www.w3.org/1999/xlink" width="37.498" height="27.504" viewBox="0 0 37.498 27.504">
	<path transform="matrix(1 0 0 1 0.000734925 3.14713e-05)" d="M36.4918 12.9204C34.8348 5.429 32.3411 1.43056 28.6418 0.338372C28.253 0.224328 27.8581 0.138967 27.4569 0.0822896C27.0557 0.0256123 26.6525 -0.00178734 26.2473 9.05991e-05C25.1762 9.05991e-05 24.2434 0.261028 23.2567 0.53759C22.0676 0.871184 20.7168 1.25009 18.7473 1.25009C16.7778 1.25009 15.4262 0.871966 14.2348 0.538372C13.2473 0.261028 12.3153 9.05991e-05 11.2473 9.05991e-05C10.8283 -0.00136216 10.4113 0.0261722 9.99613 0.0826937C9.58098 0.139215 9.17174 0.224181 8.76841 0.337591C5.08872 1.42509 2.59653 5.42197 0.915281 12.9157C-0.892532 20.9798 -0.00268793 26.0712 3.41059 27.2524C3.64453 27.3349 3.88371 27.3972 4.12814 27.4395C4.37256 27.4817 4.6188 27.5032 4.86684 27.504C7.20512 27.504 9.08013 25.5563 10.3614 23.9618C11.809 22.1571 13.5036 21.2415 18.7473 21.2415C23.4309 21.2415 25.3692 21.8767 27.0434 23.9618C28.0958 25.2727 29.0903 26.1899 30.0825 26.7673C31.402 27.5345 32.7207 27.7048 34.0012 27.2649C36.0184 26.5767 37.1747 24.7571 37.4387 21.8556C37.6395 19.6306 37.3301 16.7079 36.4918 12.9204ZM14.9973 12.5001L12.4973 12.5001L12.4973 15.0001C12.4973 15.3453 12.3753 15.6399 12.1312 15.884C11.8871 16.1281 11.5925 16.2501 11.2473 16.2501C10.9021 16.2501 10.6075 16.1281 10.3634 15.884C10.1194 15.6399 9.99731 15.3453 9.99731 15.0001L9.99731 12.5001L7.49731 12.5001C7.15213 12.5001 6.85751 12.378 6.61343 12.134C6.36935 11.8899 6.24731 11.5953 6.24731 11.2501C6.24731 10.9049 6.36935 10.6103 6.61343 10.3662C6.85751 10.1221 7.15213 10.0001 7.49731 10.0001L9.99731 10.0001L9.99731 7.50009C9.99731 7.15491 10.1194 6.86028 10.3634 6.61621C10.6075 6.37213 10.9021 6.25009 11.2473 6.25009C11.5925 6.25009 11.8871 6.37213 12.1312 6.61621C12.3753 6.86028 12.4973 7.15491 12.4973 7.50009L12.4973 10.0001L14.9973 10.0001C15.3425 10.0001 15.6371 10.1221 15.8812 10.3662C16.1253 10.6103 16.2473 10.9049 16.2473 11.2501C16.2473 11.5953 16.1253 11.8899 15.8812 12.134C15.6371 12.378 15.3425 12.5001 14.9973 12.5001ZM21.5598 12.8126C21.1283 12.8126 20.7601 12.66 20.455 12.3549C20.1499 12.0498 19.9973 11.6816 19.9973 11.2501C19.9973 10.8186 20.1499 10.4503 20.455 10.1452C20.7601 9.84014 21.1283 9.68759 21.5598 9.68759C21.9913 9.68759 22.3596 9.84014 22.6647 10.1452C22.9698 10.4503 23.1223 10.8186 23.1223 11.2501C23.1223 11.6816 22.9698 12.0498 22.6647 12.3549C22.3596 12.66 21.9913 12.8126 21.5598 12.8126ZM24.9973 16.2501C24.5656 16.2501 24.1972 16.0974 23.892 15.792C23.5869 15.4866 23.4345 15.118 23.4348 14.6863C23.4352 14.2546 23.5882 13.8863 23.8938 13.5814C24.1995 13.2765 24.5682 13.1244 24.9999 13.1251C25.4317 13.1258 25.7998 13.2791 26.1045 13.585C26.4091 13.891 26.5609 14.2598 26.5598 14.6915C26.5587 15.1222 26.4057 15.4896 26.1008 15.7938C25.7959 16.098 25.428 16.2501 24.9973 16.2501ZM24.9973 9.37509C24.5658 9.37509 24.1976 9.22254 23.8925 8.91744C23.5874 8.61235 23.4348 8.24406 23.4348 7.81259C23.4348 7.38112 23.5874 7.01283 23.8925 6.70774C24.1976 6.40264 24.5658 6.25009 24.9973 6.25009C25.4288 6.25009 25.7971 6.40264 26.1022 6.70774C26.4073 7.01283 26.5598 7.38112 26.5598 7.81259C26.5598 8.24406 26.4073 8.61235 26.1022 8.91744C25.7971 9.22254 25.4288 9.37509 24.9973 9.37509ZM28.4348 12.8126C28.0033 12.8126 27.6351 12.66 27.33 12.3549C27.0249 12.0498 26.8723 11.6816 26.8723 11.2501C26.8723 10.8186 27.0249 10.4503 27.33 10.1452C27.6351 9.84014 28.0033 9.68759 28.4348 9.68759C28.8663 9.68759 29.2346 9.84014 29.5397 10.1452C29.8448 10.4503 29.9973 10.8186 29.9973 11.2501C29.9973 11.6816 29.8448 12.0498 29.5397 12.3549C29.2346 12.66 28.8663 12.8126 28.4348 12.8126Z" fill-rule="nonzero" fill="rgb(255, 255, 255)"/>
</svg>
