<?xml version="1.0" encoding="utf-8" ?>
<svg xmlns="http://www.w3.org/2000/svg" xmlns:xlink="http://www.w3.org/1999/xlink" width="24" height="24" viewBox="0 0 24 24">
	<defs>
		<clipPath id="clipPath3155268068">
			<path transform="matrix(1 0 0 1 -0 -0)" d="M0 0L24 0L24 24L0 24L0 0Z" fill-rule="nonzero"/>
		</clipPath>
	</defs>
	<g clip-path="url(#clipPath3155268068)">
		<path transform="matrix(1 0 0 1 1.5 1.5)" d="M10.5 0C4.70156 0 0 4.82344 0 10.7672C0 15.525 3.00937 19.5562 7.18125 20.9812C7.21051 20.9876 7.24003 20.9923 7.2698 20.9955C7.29958 20.9986 7.32944 21.0001 7.35938 21C7.74844 21 7.89844 20.7141 7.89844 20.4656C7.89844 20.2078 7.88906 19.5328 7.88437 18.6328C7.71071 18.6735 7.53533 18.7045 7.35821 18.7256C7.1811 18.7468 7.00337 18.758 6.825 18.7594C4.80469 18.7594 4.34531 17.1891 4.34531 17.1891C3.86719 15.9469 3.17812 15.6141 3.17812 15.6141C2.26406 14.9719 3.17344 14.9531 3.24375 14.9531L3.24844 14.9531C4.30312 15.0469 4.85625 16.0687 4.85625 16.0687C5.38125 16.9875 6.08437 17.2453 6.7125 17.2453C6.92016 17.2412 7.12511 17.2154 7.32734 17.168C7.52956 17.1206 7.72462 17.0526 7.9125 16.9641C8.00625 16.2703 8.27812 15.7969 8.57812 15.525C6.24844 15.2531 3.79687 14.3297 3.79687 10.2047C3.79687 9.02812 4.20469 8.06719 4.875 7.31719C4.76719 7.04531 4.40625 5.94844 4.97812 4.46719C5.01648 4.45801 5.05528 4.45146 5.09452 4.44753C5.13376 4.44361 5.17309 4.44235 5.2125 4.44375C5.59219 4.44375 6.45 4.58906 7.86562 5.57344C8.72567 5.33281 9.60223 5.21249 10.4953 5.21249C11.3884 5.21249 12.265 5.33281 13.125 5.57344C14.5406 4.58906 15.3984 4.44375 15.7781 4.44375C15.8175 4.44235 15.8569 4.44361 15.8961 4.44753C15.9353 4.45146 15.9741 4.45801 16.0125 4.46719C16.5844 5.94844 16.2234 7.04531 16.1156 7.31719C16.7859 8.07187 17.1938 9.03281 17.1938 10.2047C17.1938 14.3391 14.7375 15.2484 12.3984 15.5156C12.7734 15.8484 13.1109 16.5047 13.1109 17.5078C13.1109 18.9469 13.0969 20.1094 13.0969 20.4609C13.0969 20.7141 13.2422 21 13.6313 21C13.6627 21.0001 13.6942 20.9986 13.7255 20.9955C13.7568 20.9924 13.7879 20.9876 13.8188 20.9812C17.9953 19.5562 21 15.5203 21 10.7672C21 4.82344 16.2984 0 10.5 0Z" fill-rule="nonzero" fill="rgb(75, 85, 99)"/>
	</g>
</svg>
