<svg xmlns="http://www.w3.org/2000/svg" width="64" height="64"><path d="M15.002 1.147 32 18.145 48.998 1.147a3 3 0 0 1 4.243 0l9.612 9.612a3 3 0 0 1 0 4.243L45.855 32l16.998 16.998a3 3 0 0 1 0 4.243l-9.612 9.612a3 3 0 0 1-4.243 0L32 45.855 15.002 62.853a3 3 0 0 1-4.243 0L1.147 53.24a3 3 0 0 1 0-4.243L18.145 32 1.147 15.002a3 3 0 0 1 0-4.243l9.612-9.612a3 3 0 0 1 4.243 0Z" fill="#1F3641"/><style xmlns="" class="darkreader darkreader--fallback">html, body, body :not(iframe) {
    background-color: var(--darkreader-background-ffffff, #181a1b) !important;
    border-color: var(--darkreader-border-404040, #776e62) !important;
    color: var(--darkreader-text-000000, #e8e6e3) !important;
}
div[style*="background-color: rgb(135, 135, 135)"] {
    background-color: #878787 !important;
}</style></svg>